HIERARCHY
ROOT joint_Root
{
	OFFSET 0.0 0.0 0.0
	CHANNELS 6 Xposition Yposition Zposition Zrotation Xrotation Yrotation 
	JOINT Hips
	{
		OFFSET 4.5925 91.4895 -427.239
		CHANNELS 6 Xposition Yposition Zposition Zrotation Xrotation Yrotation 
		JOINT Spine
		{
			OFFSET 15.7357 0.0 0.0
			CHANNELS 6 Xposition Yposition Zposition Zrotation Xrotation Yrotation 
			JOINT Chest
			{
				OFFSET 8.98455 -0.406207 0.0
				CHANNELS 6 Xposition Yposition Zposition Zrotation Xrotation Yrotation 
				JOINT Neck
				{
					OFFSET 16.3773 0.0 0.0
					CHANNELS 6 Xposition Yposition Zposition Zrotation Xrotation Yrotation 
					JOINT Head
					{
						OFFSET 6.45672 0.0 0.0
						CHANNELS 6 Xposition Yposition Zposition Zrotation Xrotation Yrotation 
						End Site
						{
							OFFSET 0.0 0.0 0.0
						}
					}
				}
				JOINT Shoulder_L
				{
					OFFSET 12.9942 -0.242716 4.98039
					CHANNELS 6 Xposition Yposition Zposition Zrotation Xrotation Yrotation 
					JOINT UpperArm_L
					{
						OFFSET 5.34809 0.0 0.0
						CHANNELS 6 Xposition Yposition Zposition Zrotation Xrotation Yrotation 
						JOINT LowerArm_L
						{
							OFFSET 24.3286 1.87007e-05 0.0
							CHANNELS 6 Xposition Yposition Zposition Zrotation Xrotation Yrotation 
							JOINT Hand_L
							{
								OFFSET 22.2916 0.0 0.0
								CHANNELS 6 Xposition Yposition Zposition Zrotation Xrotation Yrotation 
								End Site
								{
									OFFSET 0.0 0.0 0.0
								}
							}
						}
					}
				}
				JOINT Shoulder_R
				{
					OFFSET 12.9945 -0.242716 -4.98039
					CHANNELS 6 Xposition Yposition Zposition Zrotation Xrotation Yrotation 
					JOINT UpperArm_R
					{
						OFFSET -5.34813 0.0 0.0
						CHANNELS 6 Xposition Yposition Zposition Zrotation Xrotation Yrotation 
						JOINT LowerArm_R
						{
							OFFSET -24.3289 0.000322201 0.0
							CHANNELS 6 Xposition Yposition Zposition Zrotation Xrotation Yrotation 
							JOINT Hand_R
							{
								OFFSET -22.2915 -0.000108084 0.0
								CHANNELS 6 Xposition Yposition Zposition Zrotation Xrotation Yrotation 
								End Site
								{
									OFFSET 0.0 0.0 0.0
								}
							}
						}
					}
				}
			}
		}
		JOINT UpperLeg_L
		{
			OFFSET -2.19248 -6.46944 0.0
			CHANNELS 6 Xposition Yposition Zposition Zrotation Xrotation Yrotation 
			JOINT LowerLeg_L
			{
				OFFSET 39.0811 0.0 -1.23785e-05
				CHANNELS 6 Xposition Yposition Zposition Zrotation Xrotation Yrotation 
				JOINT Foot_L
				{
					OFFSET 40.9854 0.0 -1.26872e-05
					CHANNELS 6 Xposition Yposition Zposition Zrotation Xrotation Yrotation 
					JOINT Toes_L
					{
						OFFSET 11.7543 0.0 0.0
						CHANNELS 6 Xposition Yposition Zposition Zrotation Xrotation Yrotation 
						End Site
						{
							OFFSET 0.0 0.0 0.0
						}
					}
				}
			}
		}
		JOINT UpperLeg_R
		{
			OFFSET -2.19251 6.46944 0.0
			CHANNELS 6 Xposition Yposition Zposition Zrotation Xrotation Yrotation 
			JOINT LowerLeg_R
			{
				OFFSET -39.0811 -0.00228153 -0.0401928
				CHANNELS 6 Xposition Yposition Zposition Zrotation Xrotation Yrotation 
				JOINT Foot_R
				{
					OFFSET -40.9854 0.0 0.0
					CHANNELS 6 Xposition Yposition Zposition Zrotation Xrotation Yrotation 
					JOINT Toes_R
					{
						OFFSET -11.7543 0.0 0.0
						CHANNELS 6 Xposition Yposition Zposition Zrotation Xrotation Yrotation 
						End Site
						{
							OFFSET 0.0 0.0 0.0
						}
					}
				}
			}
		}
	}
}
MOTION
Frames:	8
Frame Time:	0.0333333
0.000000 0.000000 0.000000 0.000000 0.000000 -0.000000 -2.791260 91.494700 -39.193900 95.795000 15.135900 -8.622590 15.735700 0.000005 -0.000001 37.979800 80.732500 -36.723700 8.984550 -0.406207 -0.000000 3.909580 -14.632500 3.022120 16.377300 -0.000001 -0.000001 1.651690 -5.353300 0.823687 6.456720 -0.000001 -0.000000 -5.675950 1.328280 -0.938298 12.994200 -0.242716 4.980390 -89.379900 -2.345480 -75.185100 5.348090 -0.000007 -0.000001 -61.468500 21.147300 -20.332600 24.328600 0.000019 0.000005 13.698300 3.182900 -77.170400 22.291600 -0.000001 0.000005 9.703910 5.433370 -4.055540 12.994500 -0.242716 -4.980390 88.068100 5.009800 -68.875800 -5.348130 -0.000001 -0.000004 -62.311000 21.957000 23.113100 -24.328900 0.000322 -0.000009 -0.950899 -1.094210 -40.938400 -22.291500 -0.000108 -0.000004 11.464000 5.586230 -10.547400 -2.192480 -6.469440 -0.000000 -172.206000 -0.448758 13.582800 39.081100 -0.000007 -0.000012 0.380988 -0.195478 62.838300 40.985400 -0.000006 -0.000013 2.522230 -7.899180 -32.890500 11.754300 -0.000000 0.000003 -0.003210 -0.042965 -18.324200 -2.192510 6.469440 -0.000001 -177.181000 24.995300 142.764000 -39.081100 -0.002282 -0.040193 -0.102713 0.272576 21.256100 -40.985400 0.000008 0.000006 -5.524900 11.104300 -76.012200 -11.754300 -0.000006 -0.000006 -0.020630 -0.170754 -23.550600
0.000000 0.000000 0.000000 0.000000 0.000000 -0.000000 -2.780160 88.667400 -27.212800 93.151400 10.504500 -7.151770 15.735700 0.000005 -0.000001 49.420700 81.507700 -47.298000 8.984550 -0.406207 -0.000000 5.423440 -11.067900 4.776740 16.377300 -0.000001 -0.000001 0.845072 -4.251950 0.420222 6.456720 -0.000001 -0.000000 -6.791910 1.007060 -1.331050 12.994200 -0.242716 4.980390 -89.870400 -0.477510 -74.780200 5.348090 -0.000007 -0.000001 -60.716700 25.218400 -14.355800 24.328600 0.000019 0.000005 13.383800 5.462100 -68.196300 22.291600 -0.000001 0.000005 8.168480 5.456100 -4.870280 12.994500 -0.242716 -4.980390 87.331300 8.003090 -71.477600 -5.348130 -0.000001 -0.000004 -57.941100 18.943400 14.415900 -24.328900 0.000322 -0.000009 -3.575910 -3.718600 -43.902400 -22.291500 -0.000108 -0.000004 12.362600 5.602280 -11.463100 -2.192480 -6.469440 -0.000000 -172.423000 -2.525530 7.591080 39.081100 -0.000007 -0.000012 0.621636 -0.082741 82.418000 40.985400 -0.000006 -0.000013 -1.692650 -6.479480 -24.594200 11.754300 -0.000000 0.000003 -0.002566 -0.035590 -18.024100 -2.192510 6.469440 -0.000001 -172.899000 22.014100 139.289000 -39.081100 -0.002282 -0.040193 0.415495 -0.573171 35.723300 -40.985400 0.000008 0.000006 7.294560 4.927390 -71.287000 -11.754300 -0.000006 -0.000006 -0.032422 -0.228358 -25.934500
0.000000 0.000000 0.000000 0.000000 0.000000 -0.000000 -3.252660 85.105700 -16.538700 89.745100 5.852550 -7.369260 15.735700 0.000005 -0.000001 59.792200 82.069800 -56.513700 8.984550 -0.406207 -0.000000 6.225860 -8.002130 6.994080 16.377300 -0.000001 -0.000001 -1.028360 -2.454750 0.194122 6.456720 -0.000001 -0.000000 -7.482900 1.883230 -2.663100 12.994200 -0.242716 4.980390 -90.685900 2.383090 -73.943100 5.348090 -0.000007 -0.000001 -58.910700 29.651600 -7.829760 24.328600 0.000019 0.000005 12.364200 8.905490 -54.787800 22.291600 -0.000001 0.000005 5.043080 5.465770 -5.217380 12.994500 -0.242716 -4.980390 86.789600 11.311500 -74.038800 -5.348130 -0.000001 -0.000004 -51.539000 16.465100 1.288730 -24.328900 0.000322 -0.000009 -5.300660 -4.632720 -48.957000 -22.291500 -0.000108 -0.000004 15.560900 5.614130 -12.194500 -2.192480 -6.469440 -0.000000 -172.317000 -5.424330 -5.282560 39.081100 -0.000007 -0.000012 0.691803 0.175686 104.248000 40.985400 -0.000006 -0.000013 -2.733560 -5.603950 -15.259800 11.754300 -0.000000 0.000003 -0.002971 -0.040277 -18.214700 -2.192510 6.469440 -0.000001 -172.774000 10.531900 136.900000 -39.081100 -0.002282 -0.040193 -0.266907 0.221232 50.685700 -40.985400 0.000008 0.000006 6.373880 -0.880129 -66.452900 -11.754300 -0.000006 -0.000006 -0.012382 -0.120649 -21.492000
0.000000 0.000000 0.000000 0.000000 0.000000 -0.000000 -3.524400 82.277000 -5.932450 86.587200 -1.165330 -5.277210 15.735700 0.000005 -0.000001 76.609900 81.470300 -72.673100 8.984550 -0.406207 -0.000000 8.991450 -3.887800 8.175170 16.377300 -0.000001 -0.000001 -2.588510 -0.696231 0.541630 6.456720 -0.000001 -0.000000 -8.337050 3.358340 -4.082160 12.994200 -0.242716 4.980390 -90.888700 2.909160 -73.002000 5.348090 -0.000007 -0.000001 -62.264800 32.120400 0.094094 24.328600 0.000019 0.000005 11.175600 15.050100 -37.298700 22.291600 -0.000001 0.000005 3.542020 5.492670 -6.241870 12.994500 -0.242716 -4.980390 87.272800 11.455200 -76.515000 -5.348130 -0.000001 -0.000004 -49.423700 12.350500 -15.842300 -24.328900 0.000322 -0.000009 -5.435300 -3.742200 -55.561200 -22.291500 -0.000108 -0.000004 18.548100 5.622500 -12.781400 -2.192480 -6.469440 -0.000000 -172.755000 -10.557400 -18.964700 39.081100 -0.000007 -0.000012 0.479503 0.299744 122.008000 40.985400 -0.000006 -0.000013 -0.315907 -4.145570 -12.197400 11.754300 -0.000000 0.000003 -0.003533 -0.046501 -18.468100 -2.192510 6.469440 -0.000001 -170.919000 1.298500 142.450000 -39.081100 -0.002282 -0.040193 -0.492785 0.275120 60.983600 -40.985400 0.000008 0.000006 7.819560 -5.375730 -78.839400 -11.754300 -0.000006 -0.000006 -0.005323 -0.064554 -19.199900
0.000000 0.000000 0.000000 0.000000 0.000000 -0.000000 -3.342690 81.113600 4.848240 87.019400 -6.085150 -5.137210 15.735700 0.000005 -0.000001 87.201400 81.232800 -83.969000 8.984550 -0.406207 -0.000000 9.779010 -0.794003 6.528040 16.377300 -0.000001 -0.000001 -2.931830 -0.198485 1.497680 6.456720 -0.000001 -0.000000 -8.187470 2.890280 -4.043710 12.994200 -0.242716 4.980390 -90.469300 1.460800 -72.186500 5.348090 -0.000007 -0.000001 -67.057800 29.515500 9.306530 24.328600 0.000019 0.000005 13.618100 25.875700 -29.040700 22.291600 -0.000001 0.000005 -0.889512 5.506110 -6.851550 12.994500 -0.242716 -4.980390 88.463200 8.545320 -79.771400 -5.348130 -0.000001 -0.000004 -51.666200 8.592710 -29.518300 -24.328900 0.000322 -0.000009 -3.500470 -1.607720 -65.424800 -22.291500 -0.000108 -0.000004 16.575600 5.610790 -11.987000 -2.192480 -6.469440 -0.000000 -177.644000 -12.550300 -36.824900 39.081100 -0.000007 -0.000012 -0.038100 -0.032794 130.743000 40.985400 -0.000006 -0.000013 3.830490 -2.982790 -12.652300 11.754300 -0.000000 0.000003 -0.002513 -0.034964 -17.998600 -2.192510 6.469440 -0.000001 -172.042000 2.882410 150.922000 -39.081100 -0.002282 -0.040193 0.187210 -0.094181 62.898000 -40.985400 0.000008 0.000006 13.256200 -3.285390 -89.231200 -11.754300 -0.000006 -0.000006 -0.005098 -0.062413 -19.112600
0.000000 0.000000 0.000000 0.000000 0.000000 -0.000000 -2.735470 82.273300 17.009600 89.813000 -8.966910 -6.427020 15.735700 0.000005 -0.000001 98.021500 81.862000 -96.167800 8.984550 -0.406207 -0.000000 8.321380 2.269790 3.539060 16.377300 -0.000001 -0.000001 -2.500550 -0.964784 2.267070 6.456720 -0.000001 -0.000000 -7.641640 0.408798 -3.938780 12.994200 -0.242716 4.980390 -90.251200 0.702679 -70.307100 5.348090 -0.000007 -0.000001 -68.168100 31.262400 17.927300 24.328600 0.000019 0.000005 15.608200 26.877100 -31.722600 22.291600 -0.000001 0.000005 -2.945740 5.539220 -8.206690 12.994500 -0.242716 -4.980390 89.113300 5.206610 -80.318300 -5.348130 -0.000001 -0.000004 -49.172800 7.966960 -38.918100 -24.328900 0.000322 -0.000009 -1.397180 -0.368246 -75.179100 -22.291500 -0.000108 -0.000004 16.813100 5.586050 -10.558100 -2.192480 -6.469440 -0.000000 174.821000 -10.370000 -49.002100 39.081100 -0.000007 -0.000012 -0.453995 -0.351957 127.786000 40.985400 -0.000006 -0.000013 9.559460 -6.118050 -27.103400 11.754300 -0.000000 0.000003 -0.002349 -0.033004 -17.918900 -2.192510 6.469440 -0.000001 -178.081000 4.128200 161.984000 -39.081100 -0.002282 -0.040193 0.187568 -0.125543 55.744300 -40.985400 0.000008 0.000006 13.220000 0.886587 -91.649800 -11.754300 -0.000006 -0.000006 -0.011495 -0.114487 -21.239600
0.000000 0.000000 0.000000 0.000000 0.000000 -0.000000 -1.967470 85.416800 30.180300 92.872300 -11.503600 -8.250670 15.735700 0.000005 -0.000001 110.440000 82.537800 -110.305000 8.984550 -0.406207 -0.000000 6.232300 5.195510 -0.011561 16.377300 -0.000001 -0.000001 -1.746640 -1.626640 2.670180 6.456720 -0.000001 -0.000000 -7.215050 -2.020640 -3.182550 12.994200 -0.242716 4.980390 -89.551300 -1.136760 -68.479100 5.348090 -0.000007 -0.000001 -69.298200 30.893400 24.665400 24.328600 0.000019 0.000005 12.381800 19.203500 -33.723600 22.291600 -0.000001 0.000005 -1.253240 5.549040 -8.658720 12.994500 -0.242716 -4.980390 89.625000 2.209510 -80.362600 -5.348130 -0.000001 -0.000004 -46.961200 8.415440 -42.234900 -24.328900 0.000322 -0.000009 -2.942350 -0.371730 -82.807700 -22.291500 -0.000108 -0.000004 15.406800 5.555430 -8.918670 -2.192480 -6.469440 -0.000000 170.118000 -6.083050 -54.799700 39.081100 -0.000007 -0.000012 -0.279975 -0.127217 114.439000 40.985400 -0.000006 -0.000013 9.864500 -10.428600 -41.643500 11.754300 -0.000000 0.000003 -0.003320 -0.044173 -18.373300 -2.192510 6.469440 -0.000001 174.727000 6.000910 172.399000 -39.081100 -0.002282 -0.040193 0.122881 -0.121005 44.669300 -40.985400 0.000008 0.000006 13.787500 7.994390 -79.614900 -11.754300 -0.000006 -0.000006 -0.098947 -0.441936 -35.012800
0.000000 0.000000 0.000000 0.000000 0.000000 -0.000000 -1.568280 89.449400 43.186400 94.303600 -13.433200 -10.205900 15.735700 0.000005 -0.000001 122.308000 82.894200 -123.499000 8.984550 -0.406207 -0.000000 4.357380 7.618940 -2.672360 16.377300 -0.000001 -0.000001 -1.185390 -2.266790 3.025720 6.456720 -0.000001 -0.000000 -6.823670 -4.008520 -2.108910 12.994200 -0.242716 4.980390 -88.660900 -3.204030 -67.308400 5.348090 -0.000007 -0.000001 -69.731300 26.808200 28.732100 24.328600 0.000019 0.000005 13.501200 18.877200 -36.577000 22.291600 -0.000001 0.000005 -0.596958 5.546430 -8.537560 12.994500 -0.242716 -4.980390 89.831300 0.977991 -80.211900 -5.348130 -0.000001 -0.000004 -46.661900 9.964920 -42.498500 -24.328900 0.000322 -0.000009 -1.922980 -0.132825 -86.041600 -22.291500 -0.000108 -0.000004 12.602000 5.528140 -7.707010 -2.192480 -6.469440 -0.000000 169.754000 -3.666240 -56.653900 39.081100 -0.000007 -0.000012 -0.000411 -0.000025 94.869200 40.985400 -0.000006 -0.000013 8.329660 -9.878110 -52.093400 11.754300 -0.000000 0.000003 -0.002839 -0.038777 -18.153700 -2.192510 6.469440 -0.000001 169.737000 9.068180 178.860000 -39.081100 -0.002282 -0.040193 0.104966 -0.145388 34.966600 -40.985400 0.000008 0.000006 12.159800 16.430400 -55.030600 -11.754300 -0.000006 -0.000006 -0.307472 -0.799360 -51.850500
